<svg xmlns="http://www.w3.org/2000/svg" width="401.506" height="401.506" viewBox="0 0 401.506 401.506"><path d="M397.373 135.487L267.743 5.867c-2.67-2.67-6.22-4.142-9.992-4.142-3.772 0-7.32 1.47-9.99 4.142L209.506 44.12c-2.67 2.67-4.14 6.218-4.14 9.99 0 3.775 1.47 7.323 4.14 9.993l5.575 5.562-95.652 95.653-104.114 25.714c-4.944 1.22-8.863 5.025-10.227 9.93-1.367 4.91.02 10.187 3.622 13.777l78.172 78.176-82.74 82.74c-2.67 2.67-4.142 6.22-4.142 9.99 0 3.773 1.47 7.322 4.14 9.992 2.672 2.67 6.22 4.143 9.993 4.143s7.32-1.472 9.992-4.142l82.74-82.738 78.188 78.18c3.556 3.56 8.76 5 13.796 3.62 4.89-1.36 8.693-5.28 9.914-10.226l25.704-104.104.396-.396 95.257-95.257 9.017 9.016c2.632 2.63 6.274 4.14 9.993 4.14 3.773 0 7.322-1.47 9.99-4.14l38.254-38.262c5.51-5.508 5.51-14.47 0-19.983zm-210.04 217.9L46.402 212.465l75.882-18.742 83.78 83.79-18.733 75.874zm34.362-100.213l-75.072-75.08 88.44-88.443 75.07 75.08-88.438 88.444zm127.434-89.42L239.483 54.11l18.267-18.267L367.398 145.48l-18.268 18.274z"/></svg>